<svg xmlns="http://www.w3.org/2000/svg" viewBox="0 0 520 520" role="img" aria-labelledby="title"><title id="title">正在動手製作的開源獸</title><path fill="#ff650f" d="M70 224C83 96 199 21 322 46c118 24 191 133 165 252l-24 111c-16 73-83 121-158 109l-112-18C110 486 55 408 67 325l3-101Z"/><path fill="#006a78" d="M278 74C213 53 161 14 174 0c18-20 82-3 126 29 36 26 51 61 36 80-11 14-32-20-58-35Z"/><ellipse cx="182" cy="260" rx="20" ry="28" fill="#006a78"/><ellipse cx="337" cy="280" rx="20" ry="28" fill="#006a78"/><path d="M228 322c19 19 41 20 61 0" fill="none" stroke="#006a78" stroke-width="14" stroke-linecap="round"/><path d="M100 390c43-45 90-49 133-13" fill="none" stroke="#ff650f" stroke-width="34" stroke-linecap="round"/><path d="m159 417 185-112" stroke="#101820" stroke-width="20" stroke-linecap="round"/><path fill="#fff4df" d="m349 302 39-13-24 34Z"/><rect x="180" y="410" width="195" height="73" rx="16" fill="#fff4df" stroke="#006a78" stroke-width="10"/></svg>
