<svg xmlns="http://www.w3.org/2000/svg" viewBox="0 0 420 520" role="img" aria-labelledby="title"><title id="title">拿著電話聆聽的開源獸</title><path fill="#ff650f" d="M87 249c18-105 111-166 211-145 95 20 145 107 128 206l-18 108c-12 69-75 111-143 100l-91-15C102 491 55 424 67 351l20-102Z"/><path fill="#006a78" d="M243 121C176 100 116 51 131 19c15-33 91-16 139 21 38 29 54 69 37 91-13 17-37 3-64-10Z"/><ellipse cx="171" cy="288" rx="20" ry="28" fill="#006a78"/><ellipse cx="308" cy="310" rx="20" ry="28" fill="#006a78"/><path d="M215 337c18 22 39 24 60 4" fill="none" stroke="#006a78" stroke-width="14" stroke-linecap="round"/><rect x="48" y="235" width="52" height="139" rx="22" fill="#101820" transform="rotate(-18 74 305)"/><circle cx="76" cy="346" r="5" fill="#fff4df"/><path d="M106 330c25 9 38 22 47 45" fill="none" stroke="#ff650f" stroke-width="32" stroke-linecap="round"/></svg>
